{
    "asset" : {
        "generator" : "Khronos glTF Blender I/O v1.6.16",
        "version" : "2.0"
    },
    "scene" : 0,
    "scenes" : [
        {
            "name" : "Scene",
            "nodes" : [
                0
            ]
        }
    ],
    "nodes" : [
        {
            "mesh" : 0,
            "name" : "Cube.010"
        }
    ],
    "materials" : [
        {
            "doubleSided" : true,
            "name" : "Material.006",
            "pbrMetallicRoughness" : {
                "baseColorFactor" : [
                    0.07433680444955826,
                    0.010612756945192814,
                    0.5028865337371826,
                    1
                ],
                "metallicFactor" : 0,
                "roughnessFactor" : 0.5
            }
        }
    ],
    "meshes" : [
        {
            "name" : "Cube",
            "primitives" : [
                {
                    "attributes" : {
                        "POSITION" : 0,
                        "NORMAL" : 1,
                        "TEXCOORD_0" : 2
                    },
                    "indices" : 3,
                    "material" : 0
                }
            ]
        }
    ],
    "accessors" : [
        {
            "bufferView" : 0,
            "componentType" : 5126,
            "count" : 4464,
            "max" : [
                0.8490794897079468,
                1.4487617015838623,
                0.18143999576568604
            ],
            "min" : [
                -0.8485145568847656,
                -1.2513123750686646,
                -0.18143999576568604
            ],
            "type" : "VEC3"
        },
        {
            "bufferView" : 1,
            "componentType" : 5126,
            "count" : 4464,
            "type" : "VEC3"
        },
        {
            "bufferView" : 2,
            "componentType" : 5126,
            "count" : 4464,
            "type" : "VEC2"
        },
        {
            "bufferView" : 3,
            "componentType" : 5123,
            "count" : 21120,
            "type" : "SCALAR"
        }
    ],
    "bufferViews" : [
        {
            "buffer" : 0,
            "byteLength" : 53568,
            "byteOffset" : 0
        },
        {
            "buffer" : 0,
            "byteLength" : 53568,
            "byteOffset" : 53568
        },
        {
            "buffer" : 0,
            "byteLength" : 35712,
            "byteOffset" : 107136
        },
        {
            "buffer" : 0,
            "byteLength" : 42240,
            "byteOffset" : 142848
        }
    ],
    "buffers" : [
        {
            "byteLength" : 185088,
            "uri" : "data:application/octet-stream;base64,"
        }
    ]
}
