{
    "asset" : {
        "generator" : "Khronos glTF Blender I/O v1.6.16",
        "version" : "2.0"
    },
    "scene" : 0,
    "scenes" : [
        {
            "name" : "Scene",
            "nodes" : [
                0
            ]
        }
    ],
    "nodes" : [
        {
            "mesh" : 0,
            "name" : "Cube.012"
        }
    ],
    "materials" : [
        {
            "doubleSided" : true,
            "name" : "Material.015",
            "pbrMetallicRoughness" : {
                "metallicFactor" : 0,
                "roughnessFactor" : 0.5
            }
        },
        {
            "doubleSided" : true,
            "name" : "Material.017",
            "pbrMetallicRoughness" : {
                "baseColorFactor" : [
                    0.8000000715255737,
                    0.1548583209514618,
                    0,
                    1
                ],
                "metallicFactor" : 0,
                "roughnessFactor" : 0.5
            }
        },
        {
            "doubleSided" : true,
            "name" : "Material.019",
            "pbrMetallicRoughness" : {
                "baseColorFactor" : [
                    0.7333032488822937,
                    0.7333032488822937,
                    0.7333032488822937,
                    1
                ],
                "roughnessFactor" : 0.25
            }
        },
        {
            "doubleSided" : true,
            "emissiveFactor" : [
                0,
                1,
                1
            ],
            "name" : "Material.018",
            "pbrMetallicRoughness" : {}
        },
        {
            "doubleSided" : true,
            "name" : "Material.001",
            "pbrMetallicRoughness" : {}
        }
    ],
    "meshes" : [
        {
            "name" : "Cube.012",
            "primitives" : [
                {
                    "attributes" : {
                        "POSITION" : 0,
                        "NORMAL" : 1,
                        "TEXCOORD_0" : 2
                    },
                    "indices" : 3,
                    "material" : 0
                },
                {
                    "attributes" : {
                        "POSITION" : 4,
                        "NORMAL" : 5,
                        "TEXCOORD_0" : 6
                    },
                    "indices" : 7,
                    "material" : 1
                },
                {
                    "attributes" : {
                        "POSITION" : 8,
                        "NORMAL" : 9,
                        "TEXCOORD_0" : 10
                    },
                    "indices" : 11,
                    "material" : 2
                },
                {
                    "attributes" : {
                        "POSITION" : 12,
                        "NORMAL" : 13,
                        "TEXCOORD_0" : 14
                    },
                    "indices" : 15,
                    "material" : 3
                },
                {
                    "attributes" : {
                        "POSITION" : 16,
                        "NORMAL" : 17,
                        "TEXCOORD_0" : 18
                    },
                    "indices" : 19,
                    "material" : 4
                }
            ]
        }
    ],
    "accessors" : [
        {
            "bufferView" : 0,
            "componentType" : 5126,
            "count" : 5190,
            "max" : [
                0.6756218671798706,
                0.5397628545761108,
                0.5341835021972656
            ],
            "min" : [
                -0.640273928642273,
                -0.7047147154808044,
                -1.0218216180801392
            ],
            "type" : "VEC3"
        },
        {
            "bufferView" : 1,
            "componentType" : 5126,
            "count" : 5190,
            "type" : "VEC3"
        },
        {
            "bufferView" : 2,
            "componentType" : 5126,
            "count" : 5190,
            "type" : "VEC2"
        },
        {
            "bufferView" : 3,
            "componentType" : 5123,
            "count" : 23280,
            "type" : "SCALAR"
        },
        {
            "bufferView" : 4,
            "componentType" : 5126,
            "count" : 128,
            "max" : [
                -0.6152477860450745,
                0.21398113667964935,
                -0.12437763810157776
            ],
            "min" : [
                -0.6788808703422546,
                -0.41934773325920105,
                -0.7508137822151184
            ],
            "type" : "VEC3"
        },
        {
            "bufferView" : 5,
            "componentType" : 5126,
            "count" : 128,
            "type" : "VEC3"
        },
        {
            "bufferView" : 6,
            "componentType" : 5126,
            "count" : 128,
            "type" : "VEC2"
        },
        {
            "bufferView" : 7,
            "componentType" : 5123,
            "count" : 672,
            "type" : "SCALAR"
        },
        {
            "bufferView" : 8,
            "componentType" : 5126,
            "count" : 613,
            "max" : [
                0.5378494262695312,
                0.5959392189979553,
                -0.6733452677726746
            ],
            "min" : [
                0.3139781057834625,
                0.4622857868671417,
                -0.8972166180610657
            ],
            "type" : "VEC3"
        },
        {
            "bufferView" : 9,
            "componentType" : 5126,
            "count" : 613,
            "type" : "VEC3"
        },
        {
            "bufferView" : 10,
            "componentType" : 5126,
            "count" : 613,
            "type" : "VEC2"
        },
        {
            "bufferView" : 11,
            "componentType" : 5123,
            "count" : 1908,
            "type" : "SCALAR"
        },
        {
            "bufferView" : 12,
            "componentType" : 5126,
            "count" : 778,
            "max" : [
                -0.3990854024887085,
                0.4202444851398468,
                0.18663433194160461
            ],
            "min" : [
                -0.542448878288269,
                0.27688097953796387,
                0.11435995995998383
            ],
            "type" : "VEC3"
        },
        {
            "bufferView" : 13,
            "componentType" : 5126,
            "count" : 778,
            "type" : "VEC3"
        },
        {
            "bufferView" : 14,
            "componentType" : 5126,
            "count" : 778,
            "type" : "VEC2"
        },
        {
            "bufferView" : 15,
            "componentType" : 5123,
            "count" : 2676,
            "type" : "SCALAR"
        },
        {
            "bufferView" : 16,
            "componentType" : 5126,
            "count" : 37,
            "max" : [
                0.45755359530448914,
                0.3420391082763672,
                0.6472325325012207
            ],
            "min" : [
                -0.3507002592086792,
                -0.5078080296516418,
                0.47628581523895264
            ],
            "type" : "VEC3"
        },
        {
            "bufferView" : 17,
            "componentType" : 5126,
            "count" : 37,
            "type" : "VEC3"
        },
        {
            "bufferView" : 18,
            "componentType" : 5126,
            "count" : 37,
            "type" : "VEC2"
        },
        {
            "bufferView" : 19,
            "componentType" : 5123,
            "count" : 120,
            "type" : "SCALAR"
        }
    ],
    "bufferViews" : [
        {
            "buffer" : 0,
            "byteLength" : 62280,
            "byteOffset" : 0
        },
        {
            "buffer" : 0,
            "byteLength" : 62280,
            "byteOffset" : 62280
        },
        {
            "buffer" : 0,
            "byteLength" : 41520,
            "byteOffset" : 124560
        },
        {
            "buffer" : 0,
            "byteLength" : 46560,
            "byteOffset" : 166080
        },
        {
            "buffer" : 0,
            "byteLength" : 1536,
            "byteOffset" : 212640
        },
        {
            "buffer" : 0,
            "byteLength" : 1536,
            "byteOffset" : 214176
        },
        {
            "buffer" : 0,
            "byteLength" : 1024,
            "byteOffset" : 215712
        },
        {
            "buffer" : 0,
            "byteLength" : 1344,
            "byteOffset" : 216736
        },
        {
            "buffer" : 0,
            "byteLength" : 7356,
            "byteOffset" : 218080
        },
        {
            "buffer" : 0,
            "byteLength" : 7356,
            "byteOffset" : 225436
        },
        {
            "buffer" : 0,
            "byteLength" : 4904,
            "byteOffset" : 232792
        },
        {
            "buffer" : 0,
            "byteLength" : 3816,
            "byteOffset" : 237696
        },
        {
            "buffer" : 0,
            "byteLength" : 9336,
            "byteOffset" : 241512
        },
        {
            "buffer" : 0,
            "byteLength" : 9336,
            "byteOffset" : 250848
        },
        {
            "buffer" : 0,
            "byteLength" : 6224,
            "byteOffset" : 260184
        },
        {
            "buffer" : 0,
            "byteLength" : 5352,
            "byteOffset" : 266408
        },
        {
            "buffer" : 0,
            "byteLength" : 444,
            "byteOffset" : 271760
        },
        {
            "buffer" : 0,
            "byteLength" : 444,
            "byteOffset" : 272204
        },
        {
            "buffer" : 0,
            "byteLength" : 296,
            "byteOffset" : 272648
        },
        {
            "buffer" : 0,
            "byteLength" : 240,
            "byteOffset" : 272944
        }
    ],
    "buffers" : [
        {
            "byteLength" : 273184,
            "uri" : "data:application/octet-stream;base64,"
        }
    ]
}
