{
    "asset" : {
        "generator" : "Khronos glTF Blender I/O v1.6.16",
        "version" : "2.0"
    },
    "scene" : 0,
    "scenes" : [
        {
            "name" : "Scene",
            "nodes" : [
                0
            ]
        }
    ],
    "nodes" : [
        {
            "mesh" : 0,
            "name" : "Cube"
        }
    ],
    "materials" : [
        {
            "doubleSided" : true,
            "name" : "Material.003",
            "pbrMetallicRoughness" : {
                "baseColorFactor" : [
                    0.008167612366378307,
                    0.012884728610515594,
                    0.136328786611557,
                    1
                ],
                "metallicFactor" : 0,
                "roughnessFactor" : 0.5
            }
        },
        {
            "doubleSided" : true,
            "name" : "clock_white.005",
            "pbrMetallicRoughness" : {
                "metallicFactor" : 0,
                "roughnessFactor" : 0.5
            }
        },
        {
            "doubleSided" : true,
            "name" : "Material.004",
            "pbrMetallicRoughness" : {
                "baseColorFactor" : [
                    0.8879235982894897,
                    0.0940215215086937,
                    0.3825099766254425,
                    1
                ],
                "metallicFactor" : 0,
                "roughnessFactor" : 0.5
            }
        }
    ],
    "meshes" : [
        {
            "name" : "Cube.003",
            "primitives" : [
                {
                    "attributes" : {
                        "POSITION" : 0,
                        "NORMAL" : 1,
                        "TEXCOORD_0" : 2
                    },
                    "indices" : 3,
                    "material" : 0
                },
                {
                    "attributes" : {
                        "POSITION" : 4,
                        "NORMAL" : 5,
                        "TEXCOORD_0" : 6
                    },
                    "indices" : 7,
                    "material" : 1
                },
                {
                    "attributes" : {
                        "POSITION" : 8,
                        "NORMAL" : 9,
                        "TEXCOORD_0" : 10
                    },
                    "indices" : 11,
                    "material" : 2
                }
            ]
        }
    ],
    "accessors" : [
        {
            "bufferView" : 0,
            "componentType" : 5126,
            "count" : 10178,
            "max" : [
                0.8810510039329529,
                1.3054795265197754,
                0.3233598470687866
            ],
            "min" : [
                -0.9210187792778015,
                -1.099941372871399,
                -0.3036532402038574
            ],
            "type" : "VEC3"
        },
        {
            "bufferView" : 1,
            "componentType" : 5126,
            "count" : 10178,
            "type" : "VEC3"
        },
        {
            "bufferView" : 2,
            "componentType" : 5126,
            "count" : 10178,
            "type" : "VEC2"
        },
        {
            "bufferView" : 3,
            "componentType" : 5123,
            "count" : 54144,
            "type" : "SCALAR"
        },
        {
            "bufferView" : 4,
            "componentType" : 5126,
            "count" : 5932,
            "max" : [
                0.8119433522224426,
                1.1983659267425537,
                0.25303107500076294
            ],
            "min" : [
                -0.8795117139816284,
                -0.9881125092506409,
                -0.23332436382770538
            ],
            "type" : "VEC3"
        },
        {
            "bufferView" : 5,
            "componentType" : 5126,
            "count" : 5932,
            "type" : "VEC3"
        },
        {
            "bufferView" : 6,
            "componentType" : 5126,
            "count" : 5932,
            "type" : "VEC2"
        },
        {
            "bufferView" : 7,
            "componentType" : 5123,
            "count" : 30576,
            "type" : "SCALAR"
        },
        {
            "bufferView" : 8,
            "componentType" : 5126,
            "count" : 437,
            "max" : [
                -0.5947641134262085,
                -0.5206630229949951,
                -0.16584926843643188
            ],
            "min" : [
                -0.7277116775512695,
                -1.463021159172058,
                -0.2566128373146057
            ],
            "type" : "VEC3"
        },
        {
            "bufferView" : 9,
            "componentType" : 5126,
            "count" : 437,
            "type" : "VEC3"
        },
        {
            "bufferView" : 10,
            "componentType" : 5126,
            "count" : 437,
            "type" : "VEC2"
        },
        {
            "bufferView" : 11,
            "componentType" : 5123,
            "count" : 2016,
            "type" : "SCALAR"
        }
    ],
    "bufferViews" : [
        {
            "buffer" : 0,
            "byteLength" : 122136,
            "byteOffset" : 0
        },
        {
            "buffer" : 0,
            "byteLength" : 122136,
            "byteOffset" : 122136
        },
        {
            "buffer" : 0,
            "byteLength" : 81424,
            "byteOffset" : 244272
        },
        {
            "buffer" : 0,
            "byteLength" : 108288,
            "byteOffset" : 325696
        },
        {
            "buffer" : 0,
            "byteLength" : 71184,
            "byteOffset" : 433984
        },
        {
            "buffer" : 0,
            "byteLength" : 71184,
            "byteOffset" : 505168
        },
        {
            "buffer" : 0,
            "byteLength" : 47456,
            "byteOffset" : 576352
        },
        {
            "buffer" : 0,
            "byteLength" : 61152,
            "byteOffset" : 623808
        },
        {
            "buffer" : 0,
            "byteLength" : 5244,
            "byteOffset" : 684960
        },
        {
            "buffer" : 0,
            "byteLength" : 5244,
            "byteOffset" : 690204
        },
        {
            "buffer" : 0,
            "byteLength" : 3496,
            "byteOffset" : 695448
        },
        {
            "buffer" : 0,
            "byteLength" : 4032,
            "byteOffset" : 698944
        }
    ],
    "buffers" : [
        {
            "byteLength" : 702976,
            "uri" : "data:application/octet-stream;base64,"
        }
    ]
}
