{
    "asset" : {
        "generator" : "Khronos glTF Blender I/O v1.6.16",
        "version" : "2.0"
    },
    "scene" : 0,
    "scenes" : [
        {
            "name" : "Scene",
            "nodes" : [
                0
            ]
        }
    ],
    "nodes" : [
        {
            "mesh" : 0,
            "name" : "Cube.003"
        }
    ],
    "materials" : [
        {
            "doubleSided" : true,
            "name" : "Material.019",
            "pbrMetallicRoughness" : {
                "metallicFactor" : 0,
                "roughnessFactor" : 0.5
            }
        },
        {
            "doubleSided" : true,
            "name" : "Material.018",
            "pbrMetallicRoughness" : {
                "baseColorFactor" : [
                    0.5316157341003418,
                    0.3135766386985779,
                    0,
                    1
                ],
                "roughnessFactor" : 0.5
            }
        }
    ],
    "meshes" : [
        {
            "name" : "Cube.006",
            "primitives" : [
                {
                    "attributes" : {
                        "POSITION" : 0,
                        "NORMAL" : 1,
                        "TEXCOORD_0" : 2
                    },
                    "indices" : 3,
                    "material" : 0
                },
                {
                    "attributes" : {
                        "POSITION" : 4,
                        "NORMAL" : 5,
                        "TEXCOORD_0" : 6
                    },
                    "indices" : 7,
                    "material" : 1
                }
            ]
        }
    ],
    "accessors" : [
        {
            "bufferView" : 0,
            "componentType" : 5126,
            "count" : 9900,
            "max" : [
                1.5431592464447021,
                0.6519372463226318,
                1.6744346618652344
            ],
            "min" : [
                -1.571828007698059,
                -1.4338111877441406,
                -1.7845185995101929
            ],
            "type" : "VEC3"
        },
        {
            "bufferView" : 1,
            "componentType" : 5126,
            "count" : 9900,
            "type" : "VEC3"
        },
        {
            "bufferView" : 2,
            "componentType" : 5126,
            "count" : 9900,
            "type" : "VEC2"
        },
        {
            "bufferView" : 3,
            "componentType" : 5123,
            "count" : 42624,
            "type" : "SCALAR"
        },
        {
            "bufferView" : 4,
            "componentType" : 5126,
            "count" : 45380,
            "max" : [
                1.2925854921340942,
                0.8343698382377625,
                1.5237126350402832
            ],
            "min" : [
                -1.4122940301895142,
                -1.4295079708099365,
                -1.5210171937942505
            ],
            "type" : "VEC3"
        },
        {
            "bufferView" : 5,
            "componentType" : 5126,
            "count" : 45380,
            "type" : "VEC3"
        },
        {
            "bufferView" : 6,
            "componentType" : 5126,
            "count" : 45380,
            "type" : "VEC2"
        },
        {
            "bufferView" : 7,
            "componentType" : 5123,
            "count" : 209976,
            "type" : "SCALAR"
        }
    ],
    "bufferViews" : [
        {
            "buffer" : 0,
            "byteLength" : 118800,
            "byteOffset" : 0
        },
        {
            "buffer" : 0,
            "byteLength" : 118800,
            "byteOffset" : 118800
        },
        {
            "buffer" : 0,
            "byteLength" : 79200,
            "byteOffset" : 237600
        },
        {
            "buffer" : 0,
            "byteLength" : 85248,
            "byteOffset" : 316800
        },
        {
            "buffer" : 0,
            "byteLength" : 544560,
            "byteOffset" : 402048
        },
        {
            "buffer" : 0,
            "byteLength" : 544560,
            "byteOffset" : 946608
        },
        {
            "buffer" : 0,
            "byteLength" : 363040,
            "byteOffset" : 1491168
        },
        {
            "buffer" : 0,
            "byteLength" : 419952,
            "byteOffset" : 1854208
        }
    ],
    "buffers" : [
        {
            "byteLength" : 2274160,
            "uri" : "data:application/octet-stream;base64,"
        }
    ]
}
