{
    "asset" : {
        "generator" : "Khronos glTF Blender I/O v1.6.16",
        "version" : "2.0"
    },
    "scene" : 0,
    "scenes" : [
        {
            "name" : "Scene",
            "nodes" : [
                0
            ]
        }
    ],
    "nodes" : [
        {
            "mesh" : 0,
            "name" : "Plane.001"
        }
    ],
    "materials" : [
        {
            "doubleSided" : true,
            "name" : "Material.059",
            "pbrMetallicRoughness" : {
                "baseColorFactor" : [
                    0.6583751440048218,
                    0.3049873113632202,
                    0.01680740714073181,
                    1
                ],
                "roughnessFactor" : 0.20000000298023224
            }
        },
        {
            "doubleSided" : true,
            "name" : "Material.001",
            "pbrMetallicRoughness" : {
                "baseColorFactor" : [
                    0.509136438369751,
                    0,
                    0,
                    1
                ],
                "metallicFactor" : 0,
                "roughnessFactor" : 0.5
            }
        }
    ],
    "meshes" : [
        {
            "name" : "Plane.001",
            "primitives" : [
                {
                    "attributes" : {
                        "POSITION" : 0,
                        "NORMAL" : 1,
                        "TEXCOORD_0" : 2
                    },
                    "indices" : 3,
                    "material" : 0
                },
                {
                    "attributes" : {
                        "POSITION" : 4,
                        "NORMAL" : 5,
                        "TEXCOORD_0" : 6
                    },
                    "indices" : 7,
                    "material" : 1
                }
            ]
        }
    ],
    "accessors" : [
        {
            "bufferView" : 0,
            "componentType" : 5126,
            "count" : 22073,
            "max" : [
                0.950789749622345,
                1.133737564086914,
                0.2834160327911377
            ],
            "min" : [
                -0.9564787149429321,
                -0.7735311388969421,
                -0.2889881730079651
            ],
            "type" : "VEC3"
        },
        {
            "bufferView" : 1,
            "componentType" : 5126,
            "count" : 22073,
            "type" : "VEC3"
        },
        {
            "bufferView" : 2,
            "componentType" : 5126,
            "count" : 22073,
            "type" : "VEC2"
        },
        {
            "bufferView" : 3,
            "componentType" : 5123,
            "count" : 121200,
            "type" : "SCALAR"
        },
        {
            "bufferView" : 4,
            "componentType" : 5126,
            "count" : 4464,
            "max" : [
                0.453281044960022,
                -0.16124334931373596,
                -0.13697494566440582
            ],
            "min" : [
                -0.4586664140224457,
                -1.6117233037948608,
                -0.19911669194698334
            ],
            "type" : "VEC3"
        },
        {
            "bufferView" : 5,
            "componentType" : 5126,
            "count" : 4464,
            "type" : "VEC3"
        },
        {
            "bufferView" : 6,
            "componentType" : 5126,
            "count" : 4464,
            "type" : "VEC2"
        },
        {
            "bufferView" : 7,
            "componentType" : 5123,
            "count" : 21120,
            "type" : "SCALAR"
        }
    ],
    "bufferViews" : [
        {
            "buffer" : 0,
            "byteLength" : 264876,
            "byteOffset" : 0
        },
        {
            "buffer" : 0,
            "byteLength" : 264876,
            "byteOffset" : 264876
        },
        {
            "buffer" : 0,
            "byteLength" : 176584,
            "byteOffset" : 529752
        },
        {
            "buffer" : 0,
            "byteLength" : 242400,
            "byteOffset" : 706336
        },
        {
            "buffer" : 0,
            "byteLength" : 53568,
            "byteOffset" : 948736
        },
        {
            "buffer" : 0,
            "byteLength" : 53568,
            "byteOffset" : 1002304
        },
        {
            "buffer" : 0,
            "byteLength" : 35712,
            "byteOffset" : 1055872
        },
        {
            "buffer" : 0,
            "byteLength" : 42240,
            "byteOffset" : 1091584
        }
    ],
    "buffers" : [
        {
            "byteLength" : 1133824,
            "uri" : "data:application/octet-stream;base64,"
        }
    ]
}
