{
    "asset" : {
        "generator" : "Khronos glTF Blender I/O v1.6.16",
        "version" : "2.0"
    },
    "scene" : 0,
    "scenes" : [
        {
            "name" : "Scene",
            "nodes" : [
                0
            ]
        }
    ],
    "nodes" : [
        {
            "mesh" : 0,
            "name" : "Cube.011"
        }
    ],
    "materials" : [
        {
            "doubleSided" : true,
            "name" : "Material.013",
            "pbrMetallicRoughness" : {
                "baseColorFactor" : [
                    0,
                    0,
                    0,
                    1
                ],
                "metallicFactor" : 0,
                "roughnessFactor" : 0.699999988079071
            }
        },
        {
            "doubleSided" : true,
            "name" : "Material.015",
            "pbrMetallicRoughness" : {
                "baseColorFactor" : [
                    0.005953604821115732,
                    0.005953604821115732,
                    0.005953604821115732,
                    1
                ],
                "metallicFactor" : 0,
                "roughnessFactor" : 0.5
            }
        },
        {
            "doubleSided" : true,
            "name" : "Material.014",
            "pbrMetallicRoughness" : {
                "baseColorFactor" : [
                    0.44467535614967346,
                    0.44467535614967346,
                    0.44467535614967346,
                    1
                ],
                "metallicFactor" : 0,
                "roughnessFactor" : 0.5
            }
        },
        {
            "doubleSided" : true,
            "name" : "Material.016",
            "pbrMetallicRoughness" : {
                "baseColorFactor" : [
                    0,
                    0.10494793206453323,
                    0.8000000715255737,
                    1
                ],
                "metallicFactor" : 0,
                "roughnessFactor" : 0.5
            }
        }
    ],
    "meshes" : [
        {
            "name" : "Cube.017",
            "primitives" : [
                {
                    "attributes" : {
                        "POSITION" : 0,
                        "NORMAL" : 1,
                        "TEXCOORD_0" : 2
                    },
                    "indices" : 3,
                    "material" : 0
                },
                {
                    "attributes" : {
                        "POSITION" : 4,
                        "NORMAL" : 5,
                        "TEXCOORD_0" : 6
                    },
                    "indices" : 7,
                    "material" : 1
                },
                {
                    "attributes" : {
                        "POSITION" : 8,
                        "NORMAL" : 9,
                        "TEXCOORD_0" : 10
                    },
                    "indices" : 11,
                    "material" : 2
                },
                {
                    "attributes" : {
                        "POSITION" : 12,
                        "NORMAL" : 13,
                        "TEXCOORD_0" : 14
                    },
                    "indices" : 15,
                    "material" : 3
                }
            ]
        }
    ],
    "accessors" : [
        {
            "bufferView" : 0,
            "componentType" : 5126,
            "count" : 962,
            "max" : [
                1.796464443206787,
                0.09702032059431076,
                0.7509431838989258
            ],
            "min" : [
                -1.866525650024414,
                -0.2092094123363495,
                -0.6745131015777588
            ],
            "type" : "VEC3"
        },
        {
            "bufferView" : 1,
            "componentType" : 5126,
            "count" : 962,
            "type" : "VEC3"
        },
        {
            "bufferView" : 2,
            "componentType" : 5126,
            "count" : 962,
            "type" : "VEC2"
        },
        {
            "bufferView" : 3,
            "componentType" : 5123,
            "count" : 3828,
            "type" : "SCALAR"
        },
        {
            "bufferView" : 4,
            "componentType" : 5126,
            "count" : 7707,
            "max" : [
                1.3969277143478394,
                0.16054540872573853,
                0.6367250680923462
            ],
            "min" : [
                -1.7654969692230225,
                -0.16312727332115173,
                -0.5700534582138062
            ],
            "type" : "VEC3"
        },
        {
            "bufferView" : 5,
            "componentType" : 5126,
            "count" : 7707,
            "type" : "VEC3"
        },
        {
            "bufferView" : 6,
            "componentType" : 5126,
            "count" : 7707,
            "type" : "VEC2"
        },
        {
            "bufferView" : 7,
            "componentType" : 5123,
            "count" : 24948,
            "type" : "SCALAR"
        },
        {
            "bufferView" : 8,
            "componentType" : 5126,
            "count" : 5872,
            "max" : [
                1.6993966102600098,
                0.12598669528961182,
                0.6354231834411621
            ],
            "min" : [
                -1.2203131914138794,
                -0.1629660278558731,
                -0.2724476158618927
            ],
            "type" : "VEC3"
        },
        {
            "bufferView" : 9,
            "componentType" : 5126,
            "count" : 5872,
            "type" : "VEC3"
        },
        {
            "bufferView" : 10,
            "componentType" : 5126,
            "count" : 5872,
            "type" : "VEC2"
        },
        {
            "bufferView" : 11,
            "componentType" : 5123,
            "count" : 19008,
            "type" : "SCALAR"
        },
        {
            "bufferView" : 12,
            "componentType" : 5126,
            "count" : 1462,
            "max" : [
                1.709694504737854,
                0.1701427400112152,
                -0.2384273111820221
            ],
            "min" : [
                1.3661524057388306,
                -0.12426234036684036,
                -0.6092890501022339
            ],
            "type" : "VEC3"
        },
        {
            "bufferView" : 13,
            "componentType" : 5126,
            "count" : 1462,
            "type" : "VEC3"
        },
        {
            "bufferView" : 14,
            "componentType" : 5126,
            "count" : 1462,
            "type" : "VEC2"
        },
        {
            "bufferView" : 15,
            "componentType" : 5123,
            "count" : 1908,
            "type" : "SCALAR"
        }
    ],
    "bufferViews" : [
        {
            "buffer" : 0,
            "byteLength" : 11544,
            "byteOffset" : 0
        },
        {
            "buffer" : 0,
            "byteLength" : 11544,
            "byteOffset" : 11544
        },
        {
            "buffer" : 0,
            "byteLength" : 7696,
            "byteOffset" : 23088
        },
        {
            "buffer" : 0,
            "byteLength" : 7656,
            "byteOffset" : 30784
        },
        {
            "buffer" : 0,
            "byteLength" : 92484,
            "byteOffset" : 38440
        },
        {
            "buffer" : 0,
            "byteLength" : 92484,
            "byteOffset" : 130924
        },
        {
            "buffer" : 0,
            "byteLength" : 61656,
            "byteOffset" : 223408
        },
        {
            "buffer" : 0,
            "byteLength" : 49896,
            "byteOffset" : 285064
        },
        {
            "buffer" : 0,
            "byteLength" : 70464,
            "byteOffset" : 334960
        },
        {
            "buffer" : 0,
            "byteLength" : 70464,
            "byteOffset" : 405424
        },
        {
            "buffer" : 0,
            "byteLength" : 46976,
            "byteOffset" : 475888
        },
        {
            "buffer" : 0,
            "byteLength" : 38016,
            "byteOffset" : 522864
        },
        {
            "buffer" : 0,
            "byteLength" : 17544,
            "byteOffset" : 560880
        },
        {
            "buffer" : 0,
            "byteLength" : 17544,
            "byteOffset" : 578424
        },
        {
            "buffer" : 0,
            "byteLength" : 11696,
            "byteOffset" : 595968
        },
        {
            "buffer" : 0,
            "byteLength" : 3816,
            "byteOffset" : 607664
        }
    ],
    "buffers" : [
        {
            "byteLength" : 611480,
            "uri" : "data:application/octet-stream;base64,"
        }
    ]
}
