{
    "asset" : {
        "generator" : "Khronos glTF Blender I/O v1.6.16",
        "version" : "2.0"
    },
    "scene" : 0,
    "scenes" : [
        {
            "name" : "Scene",
            "nodes" : [
                0
            ]
        }
    ],
    "nodes" : [
        {
            "mesh" : 0,
            "name" : "Plane"
        }
    ],
    "materials" : [
        {
            "doubleSided" : true,
            "name" : "Material.012",
            "pbrMetallicRoughness" : {
                "baseColorFactor" : [
                    0.16698040068149567,
                    0.18462668359279633,
                    0.6375972032546997,
                    1
                ],
                "metallicFactor" : 0,
                "roughnessFactor" : 0.5
            }
        },
        {
            "doubleSided" : true,
            "name" : "Material.007",
            "pbrMetallicRoughness" : {
                "metallicFactor" : 0,
                "roughnessFactor" : 0.5
            }
        },
        {
            "doubleSided" : true,
            "name" : "Material.014",
            "pbrMetallicRoughness" : {
                "baseColorFactor" : [
                    1,
                    0.7583305835723877,
                    0.04126334190368652,
                    1
                ],
                "metallicFactor" : 0,
                "roughnessFactor" : 0.5
            }
        }
    ],
    "meshes" : [
        {
            "name" : "Plane",
            "primitives" : [
                {
                    "attributes" : {
                        "POSITION" : 0,
                        "NORMAL" : 1,
                        "TEXCOORD_0" : 2
                    },
                    "indices" : 3,
                    "material" : 0
                },
                {
                    "attributes" : {
                        "POSITION" : 4,
                        "NORMAL" : 5,
                        "TEXCOORD_0" : 6
                    },
                    "indices" : 7,
                    "material" : 1
                },
                {
                    "attributes" : {
                        "POSITION" : 8,
                        "NORMAL" : 9,
                        "TEXCOORD_0" : 10
                    },
                    "indices" : 11,
                    "material" : 2
                }
            ]
        }
    ],
    "accessors" : [
        {
            "bufferView" : 0,
            "componentType" : 5126,
            "count" : 21936,
            "max" : [
                0.6163346171379089,
                0.9859049916267395,
                0.25855904817581177
            ],
            "min" : [
                -0.7139831185340881,
                -0.624286413192749,
                -0.3434293568134308
            ],
            "type" : "VEC3"
        },
        {
            "bufferView" : 1,
            "componentType" : 5126,
            "count" : 21936,
            "type" : "VEC3"
        },
        {
            "bufferView" : 2,
            "componentType" : 5126,
            "count" : 21936,
            "type" : "VEC2"
        },
        {
            "bufferView" : 3,
            "componentType" : 5123,
            "count" : 121152,
            "type" : "SCALAR"
        },
        {
            "bufferView" : 4,
            "componentType" : 5126,
            "count" : 21888,
            "max" : [
                0.4541943073272705,
                0.7614918947219849,
                0.10641460865736008
            ],
            "min" : [
                -0.8900890350341797,
                -0.8486995100975037,
                -0.49557381868362427
            ],
            "type" : "VEC3"
        },
        {
            "bufferView" : 5,
            "componentType" : 5126,
            "count" : 21888,
            "type" : "VEC3"
        },
        {
            "bufferView" : 6,
            "componentType" : 5126,
            "count" : 21888,
            "type" : "VEC2"
        },
        {
            "bufferView" : 7,
            "componentType" : 5123,
            "count" : 121152,
            "type" : "SCALAR"
        },
        {
            "bufferView" : 8,
            "componentType" : 5126,
            "count" : 9202,
            "max" : [
                0.7751703858375549,
                -0.02140808291733265,
                0.14520905911922455
            ],
            "min" : [
                0.3546086251735687,
                -0.42216184735298157,
                0.10865313559770584
            ],
            "type" : "VEC3"
        },
        {
            "bufferView" : 9,
            "componentType" : 5126,
            "count" : 9202,
            "type" : "VEC3"
        },
        {
            "bufferView" : 10,
            "componentType" : 5126,
            "count" : 9202,
            "type" : "VEC2"
        },
        {
            "bufferView" : 11,
            "componentType" : 5123,
            "count" : 55200,
            "type" : "SCALAR"
        }
    ],
    "bufferViews" : [
        {
            "buffer" : 0,
            "byteLength" : 263232,
            "byteOffset" : 0
        },
        {
            "buffer" : 0,
            "byteLength" : 263232,
            "byteOffset" : 263232
        },
        {
            "buffer" : 0,
            "byteLength" : 175488,
            "byteOffset" : 526464
        },
        {
            "buffer" : 0,
            "byteLength" : 242304,
            "byteOffset" : 701952
        },
        {
            "buffer" : 0,
            "byteLength" : 262656,
            "byteOffset" : 944256
        },
        {
            "buffer" : 0,
            "byteLength" : 262656,
            "byteOffset" : 1206912
        },
        {
            "buffer" : 0,
            "byteLength" : 175104,
            "byteOffset" : 1469568
        },
        {
            "buffer" : 0,
            "byteLength" : 242304,
            "byteOffset" : 1644672
        },
        {
            "buffer" : 0,
            "byteLength" : 110424,
            "byteOffset" : 1886976
        },
        {
            "buffer" : 0,
            "byteLength" : 110424,
            "byteOffset" : 1997400
        },
        {
            "buffer" : 0,
            "byteLength" : 73616,
            "byteOffset" : 2107824
        },
        {
            "buffer" : 0,
            "byteLength" : 110400,
            "byteOffset" : 2181440
        }
    ],
    "buffers" : [
        {
            "byteLength" : 2291840,
            "uri" : "data:application/octet-stream;base64,"
        }
    ]
}
