{
    "asset" : {
        "generator" : "Khronos glTF Blender I/O v1.6.16",
        "version" : "2.0"
    },
    "scene" : 0,
    "scenes" : [
        {
            "name" : "Scene",
            "nodes" : [
                0
            ]
        }
    ],
    "nodes" : [
        {
            "mesh" : 0,
            "name" : "Cylinder.007"
        }
    ],
    "materials" : [
        {
            "doubleSided" : true,
            "name" : "location",
            "pbrMetallicRoughness" : {
                "baseColorFactor" : [
                    0,
                    0.5471603274345398,
                    0.7083759903907776,
                    1
                ],
                "metallicFactor" : 0,
                "roughnessFactor" : 0.3499999940395355
            }
        }
    ],
    "meshes" : [
        {
            "name" : "Cylinder.019",
            "primitives" : [
                {
                    "attributes" : {
                        "POSITION" : 0,
                        "NORMAL" : 1,
                        "TEXCOORD_0" : 2
                    },
                    "indices" : 3,
                    "material" : 0
                }
            ]
        }
    ],
    "accessors" : [
        {
            "bufferView" : 0,
            "componentType" : 5126,
            "count" : 13089,
            "max" : [
                0.9619001746177673,
                1.1882681846618652,
                0.10970662534236908
            ],
            "min" : [
                -0.9633010625839233,
                -1.6231086254119873,
                -0.10969109833240509
            ],
            "type" : "VEC3"
        },
        {
            "bufferView" : 1,
            "componentType" : 5126,
            "count" : 13089,
            "type" : "VEC3"
        },
        {
            "bufferView" : 2,
            "componentType" : 5126,
            "count" : 13089,
            "type" : "VEC2"
        },
        {
            "bufferView" : 3,
            "componentType" : 5123,
            "count" : 65328,
            "type" : "SCALAR"
        }
    ],
    "bufferViews" : [
        {
            "buffer" : 0,
            "byteLength" : 157068,
            "byteOffset" : 0
        },
        {
            "buffer" : 0,
            "byteLength" : 157068,
            "byteOffset" : 157068
        },
        {
            "buffer" : 0,
            "byteLength" : 104712,
            "byteOffset" : 314136
        },
        {
            "buffer" : 0,
            "byteLength" : 130656,
            "byteOffset" : 418848
        }
    ],
    "buffers" : [
        {
            "byteLength" : 549504,
            "uri" : "data:application/octet-stream;base64,"
        }
    ]
}
