{
    "asset" : {
        "generator" : "Khronos glTF Blender I/O v1.6.16",
        "version" : "2.0"
    },
    "scene" : 0,
    "scenes" : [
        {
            "name" : "Scene",
            "nodes" : [
                0
            ]
        }
    ],
    "nodes" : [
        {
            "mesh" : 0,
            "name" : "Circle.002"
        }
    ],
    "materials" : [
        {
            "doubleSided" : true,
            "name" : "Material.015",
            "pbrMetallicRoughness" : {}
        },
        {
            "doubleSided" : true,
            "name" : "Material.014",
            "pbrMetallicRoughness" : {
                "baseColorFactor" : [
                    0.6937497854232788,
                    0.34064584970474243,
                    0.12797978520393372,
                    1
                ],
                "metallicFactor" : 0,
                "roughnessFactor" : 0.5
            }
        }
    ],
    "meshes" : [
        {
            "name" : "Circle.002",
            "primitives" : [
                {
                    "attributes" : {
                        "POSITION" : 0,
                        "NORMAL" : 1,
                        "TEXCOORD_0" : 2
                    },
                    "indices" : 3,
                    "material" : 0
                },
                {
                    "attributes" : {
                        "POSITION" : 4,
                        "NORMAL" : 5,
                        "TEXCOORD_0" : 6
                    },
                    "indices" : 7,
                    "material" : 1
                }
            ]
        }
    ],
    "accessors" : [
        {
            "bufferView" : 0,
            "componentType" : 5126,
            "count" : 3074,
            "max" : [
                0.7224389910697937,
                1.10448157787323,
                -0.005988273769617081
            ],
            "min" : [
                -0.7280653119087219,
                -0.3460325598716736,
                -0.017224468290805817
            ],
            "type" : "VEC3"
        },
        {
            "bufferView" : 1,
            "componentType" : 5126,
            "count" : 3074,
            "type" : "VEC3"
        },
        {
            "bufferView" : 2,
            "componentType" : 5126,
            "count" : 3074,
            "type" : "VEC2"
        },
        {
            "bufferView" : 3,
            "componentType" : 5123,
            "count" : 15360,
            "type" : "SCALAR"
        },
        {
            "bufferView" : 4,
            "componentType" : 5126,
            "count" : 22179,
            "max" : [
                0.7778838872909546,
                1.160435438156128,
                0.10303471237421036
            ],
            "min" : [
                -0.7840835452079773,
                -1.332755446434021,
                -0.10216701030731201
            ],
            "type" : "VEC3"
        },
        {
            "bufferView" : 5,
            "componentType" : 5126,
            "count" : 22179,
            "type" : "VEC3"
        },
        {
            "bufferView" : 6,
            "componentType" : 5126,
            "count" : 22179,
            "type" : "VEC2"
        },
        {
            "bufferView" : 7,
            "componentType" : 5123,
            "count" : 112080,
            "type" : "SCALAR"
        }
    ],
    "bufferViews" : [
        {
            "buffer" : 0,
            "byteLength" : 36888,
            "byteOffset" : 0
        },
        {
            "buffer" : 0,
            "byteLength" : 36888,
            "byteOffset" : 36888
        },
        {
            "buffer" : 0,
            "byteLength" : 24592,
            "byteOffset" : 73776
        },
        {
            "buffer" : 0,
            "byteLength" : 30720,
            "byteOffset" : 98368
        },
        {
            "buffer" : 0,
            "byteLength" : 266148,
            "byteOffset" : 129088
        },
        {
            "buffer" : 0,
            "byteLength" : 266148,
            "byteOffset" : 395236
        },
        {
            "buffer" : 0,
            "byteLength" : 177432,
            "byteOffset" : 661384
        },
        {
            "buffer" : 0,
            "byteLength" : 224160,
            "byteOffset" : 838816
        }
    ],
    "buffers" : [
        {
            "byteLength" : 1062976,
            "uri" : "data:application/octet-stream;base64,"
        }
    ]
}
