{
    "asset" : {
        "generator" : "Khronos glTF Blender I/O v1.6.16",
        "version" : "2.0"
    },
    "scene" : 0,
    "scenes" : [
        {
            "name" : "Scene",
            "nodes" : [
                0
            ]
        }
    ],
    "nodes" : [
        {
            "mesh" : 0,
            "name" : "Cube"
        }
    ],
    "materials" : [
        {
            "doubleSided" : true,
            "name" : "Material.012",
            "pbrMetallicRoughness" : {
                "baseColorFactor" : [
                    0,
                    0,
                    0,
                    1
                ],
                "metallicFactor" : 0,
                "roughnessFactor" : 0.5
            }
        },
        {
            "doubleSided" : true,
            "name" : "Material.013",
            "pbrMetallicRoughness" : {
                "baseColorFactor" : [
                    0.4124997854232788,
                    0.23702365159988403,
                    0.0023529420141130686,
                    1
                ],
                "roughnessFactor" : 0.17322832345962524
            }
        }
    ],
    "meshes" : [
        {
            "name" : "Cube",
            "primitives" : [
                {
                    "attributes" : {
                        "POSITION" : 0,
                        "NORMAL" : 1,
                        "TEXCOORD_0" : 2
                    },
                    "indices" : 3,
                    "material" : 0
                },
                {
                    "attributes" : {
                        "POSITION" : 4,
                        "NORMAL" : 5,
                        "TEXCOORD_0" : 6
                    },
                    "indices" : 7,
                    "material" : 1
                }
            ]
        }
    ],
    "accessors" : [
        {
            "bufferView" : 0,
            "componentType" : 5126,
            "count" : 25456,
            "max" : [
                1.3377673625946045,
                1.4200713634490967,
                0.27836528420448303
            ],
            "min" : [
                -1.3374558687210083,
                -1.1250700950622559,
                -0.3257640600204468
            ],
            "type" : "VEC3"
        },
        {
            "bufferView" : 1,
            "componentType" : 5126,
            "count" : 25456,
            "type" : "VEC3"
        },
        {
            "bufferView" : 2,
            "componentType" : 5126,
            "count" : 25456,
            "type" : "VEC2"
        },
        {
            "bufferView" : 3,
            "componentType" : 5123,
            "count" : 128352,
            "type" : "SCALAR"
        },
        {
            "bufferView" : 4,
            "componentType" : 5126,
            "count" : 476,
            "max" : [
                0.9030327796936035,
                1.053739070892334,
                0.28976675868034363
            ],
            "min" : [
                -0.9192694425582886,
                -0.4700077176094055,
                -0.24155759811401367
            ],
            "type" : "VEC3"
        },
        {
            "bufferView" : 5,
            "componentType" : 5126,
            "count" : 476,
            "type" : "VEC3"
        },
        {
            "bufferView" : 6,
            "componentType" : 5126,
            "count" : 476,
            "type" : "VEC2"
        },
        {
            "bufferView" : 7,
            "componentType" : 5123,
            "count" : 2400,
            "type" : "SCALAR"
        }
    ],
    "bufferViews" : [
        {
            "buffer" : 0,
            "byteLength" : 305472,
            "byteOffset" : 0
        },
        {
            "buffer" : 0,
            "byteLength" : 305472,
            "byteOffset" : 305472
        },
        {
            "buffer" : 0,
            "byteLength" : 203648,
            "byteOffset" : 610944
        },
        {
            "buffer" : 0,
            "byteLength" : 256704,
            "byteOffset" : 814592
        },
        {
            "buffer" : 0,
            "byteLength" : 5712,
            "byteOffset" : 1071296
        },
        {
            "buffer" : 0,
            "byteLength" : 5712,
            "byteOffset" : 1077008
        },
        {
            "buffer" : 0,
            "byteLength" : 3808,
            "byteOffset" : 1082720
        },
        {
            "buffer" : 0,
            "byteLength" : 4800,
            "byteOffset" : 1086528
        }
    ],
    "buffers" : [
        {
            "byteLength" : 1091328,
            "uri" : "data:application/octet-stream;base64,"
        }
    ]
}
