{
    "asset" : {
        "generator" : "Khronos glTF Blender I/O v1.6.16",
        "version" : "2.0"
    },
    "scene" : 0,
    "scenes" : [
        {
            "name" : "Scene",
            "nodes" : [
                0
            ]
        }
    ],
    "nodes" : [
        {
            "mesh" : 0,
            "name" : "Cube.050"
        }
    ],
    "materials" : [
        {
            "doubleSided" : true,
            "name" : "Material.007",
            "pbrMetallicRoughness" : {
                "baseColorFactor" : [
                    0,
                    0.08870434761047363,
                    0.9822507500648499,
                    1
                ],
                "metallicFactor" : 0,
                "roughnessFactor" : 0.5
            }
        },
        {
            "doubleSided" : true,
            "name" : "Material.008",
            "pbrMetallicRoughness" : {
                "baseColorFactor" : [
                    0.08107401430606842,
                    0.39901426434516907,
                    0.9822507500648499,
                    1
                ],
                "metallicFactor" : 0,
                "roughnessFactor" : 0.5
            }
        },
        {
            "doubleSided" : true,
            "name" : "Material.006",
            "pbrMetallicRoughness" : {
                "baseColorFactor" : [
                    0,
                    0.10494793206453323,
                    0.8000000715255737,
                    1
                ],
                "metallicFactor" : 0,
                "roughnessFactor" : 0.5
            }
        },
        {
            "doubleSided" : true,
            "name" : "Material.009",
            "pbrMetallicRoughness" : {
                "baseColorFactor" : [
                    0,
                    0,
                    0,
                    1
                ],
                "metallicFactor" : 0,
                "roughnessFactor" : 0.30000001192092896
            }
        },
        {
            "doubleSided" : true,
            "name" : "Material.010",
            "pbrMetallicRoughness" : {
                "metallicFactor" : 0,
                "roughnessFactor" : 0.5
            }
        }
    ],
    "meshes" : [
        {
            "name" : "Cube.003",
            "primitives" : [
                {
                    "attributes" : {
                        "POSITION" : 0,
                        "NORMAL" : 1,
                        "TEXCOORD_0" : 2
                    },
                    "indices" : 3,
                    "material" : 0
                },
                {
                    "attributes" : {
                        "POSITION" : 4,
                        "NORMAL" : 5,
                        "TEXCOORD_0" : 6
                    },
                    "indices" : 7,
                    "material" : 1
                },
                {
                    "attributes" : {
                        "POSITION" : 8,
                        "NORMAL" : 9,
                        "TEXCOORD_0" : 10
                    },
                    "indices" : 11,
                    "material" : 2
                },
                {
                    "attributes" : {
                        "POSITION" : 12,
                        "NORMAL" : 13,
                        "TEXCOORD_0" : 14
                    },
                    "indices" : 15,
                    "material" : 3
                },
                {
                    "attributes" : {
                        "POSITION" : 16,
                        "NORMAL" : 17,
                        "TEXCOORD_0" : 18
                    },
                    "indices" : 19,
                    "material" : 4
                }
            ]
        }
    ],
    "accessors" : [
        {
            "bufferView" : 0,
            "componentType" : 5126,
            "count" : 532,
            "max" : [
                0.29745352268218994,
                0.008434413000941277,
                0.43409156799316406
            ],
            "min" : [
                -0.29726728796958923,
                -1.2608718872070312,
                -0.4701245427131653
            ],
            "type" : "VEC3"
        },
        {
            "bufferView" : 1,
            "componentType" : 5126,
            "count" : 532,
            "type" : "VEC3"
        },
        {
            "bufferView" : 2,
            "componentType" : 5126,
            "count" : 532,
            "type" : "VEC2"
        },
        {
            "bufferView" : 3,
            "componentType" : 5123,
            "count" : 2052,
            "type" : "SCALAR"
        },
        {
            "bufferView" : 4,
            "componentType" : 5126,
            "count" : 110,
            "max" : [
                1.5405805110931396,
                -0.24991440773010254,
                0.16883286833763123
            ],
            "min" : [
                -1.5403401851654053,
                -0.6217644214630127,
                0.138968825340271
            ],
            "type" : "VEC3"
        },
        {
            "bufferView" : 5,
            "componentType" : 5126,
            "count" : 110,
            "type" : "VEC3"
        },
        {
            "bufferView" : 6,
            "componentType" : 5126,
            "count" : 110,
            "type" : "VEC2"
        },
        {
            "bufferView" : 7,
            "componentType" : 5123,
            "count" : 282,
            "type" : "SCALAR"
        },
        {
            "bufferView" : 8,
            "componentType" : 5126,
            "count" : 343,
            "max" : [
                1.5442628860473633,
                1.5975896120071411,
                0.138968825340271
            ],
            "min" : [
                -1.544022560119629,
                -0.6254470348358154,
                -0.08457162976264954
            ],
            "type" : "VEC3"
        },
        {
            "bufferView" : 9,
            "componentType" : 5126,
            "count" : 343,
            "type" : "VEC3"
        },
        {
            "bufferView" : 10,
            "componentType" : 5126,
            "count" : 343,
            "type" : "VEC2"
        },
        {
            "bufferView" : 11,
            "componentType" : 5123,
            "count" : 1218,
            "type" : "SCALAR"
        },
        {
            "bufferView" : 12,
            "componentType" : 5126,
            "count" : 143,
            "max" : [
                1.4308998584747314,
                1.454567551612854,
                0.11102986335754395
            ],
            "min" : [
                -1.430659532546997,
                -0.20795953273773193,
                0.09911990165710449
            ],
            "type" : "VEC3"
        },
        {
            "bufferView" : 13,
            "componentType" : 5126,
            "count" : 143,
            "type" : "VEC3"
        },
        {
            "bufferView" : 14,
            "componentType" : 5126,
            "count" : 143,
            "type" : "VEC2"
        },
        {
            "bufferView" : 15,
            "componentType" : 5123,
            "count" : 534,
            "type" : "SCALAR"
        },
        {
            "bufferView" : 16,
            "componentType" : 5126,
            "count" : 368,
            "max" : [
                1.5405805110931396,
                1.5939069986343384,
                0.16883286833763123
            ],
            "min" : [
                -1.5403401851654053,
                -0.2522415518760681,
                0.11102986335754395
            ],
            "type" : "VEC3"
        },
        {
            "bufferView" : 17,
            "componentType" : 5126,
            "count" : 368,
            "type" : "VEC3"
        },
        {
            "bufferView" : 18,
            "componentType" : 5126,
            "count" : 368,
            "type" : "VEC2"
        },
        {
            "bufferView" : 19,
            "componentType" : 5123,
            "count" : 1194,
            "type" : "SCALAR"
        }
    ],
    "bufferViews" : [
        {
            "buffer" : 0,
            "byteLength" : 6384,
            "byteOffset" : 0
        },
        {
            "buffer" : 0,
            "byteLength" : 6384,
            "byteOffset" : 6384
        },
        {
            "buffer" : 0,
            "byteLength" : 4256,
            "byteOffset" : 12768
        },
        {
            "buffer" : 0,
            "byteLength" : 4104,
            "byteOffset" : 17024
        },
        {
            "buffer" : 0,
            "byteLength" : 1320,
            "byteOffset" : 21128
        },
        {
            "buffer" : 0,
            "byteLength" : 1320,
            "byteOffset" : 22448
        },
        {
            "buffer" : 0,
            "byteLength" : 880,
            "byteOffset" : 23768
        },
        {
            "buffer" : 0,
            "byteLength" : 564,
            "byteOffset" : 24648
        },
        {
            "buffer" : 0,
            "byteLength" : 4116,
            "byteOffset" : 25212
        },
        {
            "buffer" : 0,
            "byteLength" : 4116,
            "byteOffset" : 29328
        },
        {
            "buffer" : 0,
            "byteLength" : 2744,
            "byteOffset" : 33444
        },
        {
            "buffer" : 0,
            "byteLength" : 2436,
            "byteOffset" : 36188
        },
        {
            "buffer" : 0,
            "byteLength" : 1716,
            "byteOffset" : 38624
        },
        {
            "buffer" : 0,
            "byteLength" : 1716,
            "byteOffset" : 40340
        },
        {
            "buffer" : 0,
            "byteLength" : 1144,
            "byteOffset" : 42056
        },
        {
            "buffer" : 0,
            "byteLength" : 1068,
            "byteOffset" : 43200
        },
        {
            "buffer" : 0,
            "byteLength" : 4416,
            "byteOffset" : 44268
        },
        {
            "buffer" : 0,
            "byteLength" : 4416,
            "byteOffset" : 48684
        },
        {
            "buffer" : 0,
            "byteLength" : 2944,
            "byteOffset" : 53100
        },
        {
            "buffer" : 0,
            "byteLength" : 2388,
            "byteOffset" : 56044
        }
    ],
    "buffers" : [
        {
            "byteLength" : 58432,
            "uri" : "data:application/octet-stream;base64,"
        }
    ]
}
