{
    "asset" : {
        "generator" : "Khronos glTF Blender I/O v1.6.16",
        "version" : "2.0"
    },
    "scene" : 0,
    "scenes" : [
        {
            "name" : "Scene",
            "nodes" : [
                0
            ]
        }
    ],
    "nodes" : [
        {
            "mesh" : 0,
            "name" : "Cylinder.012"
        }
    ],
    "materials" : [
        {
            "doubleSided" : true,
            "name" : "Material.006",
            "pbrMetallicRoughness" : {
                "baseColorFactor" : [
                    0.0385005846619606,
                    0.45641109347343445,
                    0.032748766243457794,
                    1
                ],
                "metallicFactor" : 0,
                "roughnessFactor" : 0.5
            }
        },
        {
            "doubleSided" : true,
            "name" : "Material.009",
            "pbrMetallicRoughness" : {
                "metallicFactor" : 0,
                "roughnessFactor" : 0.5
            }
        },
        {
            "doubleSided" : true,
            "name" : "Material.007",
            "pbrMetallicRoughness" : {
                "baseColorFactor" : [
                    1,
                    0.5151214599609375,
                    0.04666513204574585,
                    1
                ],
                "metallicFactor" : 0,
                "roughnessFactor" : 0.5
            }
        },
        {
            "doubleSided" : true,
            "name" : "Material.005",
            "pbrMetallicRoughness" : {
                "baseColorFactor" : [
                    0.9473066926002502,
                    0.07862810045480728,
                    0,
                    1
                ],
                "metallicFactor" : 0,
                "roughnessFactor" : 0.5
            }
        },
        {
            "doubleSided" : true,
            "name" : "Material.008",
            "pbrMetallicRoughness" : {
                "baseColorFactor" : [
                    0.07439228892326355,
                    0.07439228892326355,
                    0.07439228892326355,
                    1
                ],
                "metallicFactor" : 0,
                "roughnessFactor" : 0.5
            }
        }
    ],
    "meshes" : [
        {
            "name" : "Cylinder.014",
            "primitives" : [
                {
                    "attributes" : {
                        "POSITION" : 0,
                        "NORMAL" : 1,
                        "TEXCOORD_0" : 2
                    },
                    "indices" : 3,
                    "material" : 0
                },
                {
                    "attributes" : {
                        "POSITION" : 4,
                        "NORMAL" : 5,
                        "TEXCOORD_0" : 6
                    },
                    "indices" : 7,
                    "material" : 1
                },
                {
                    "attributes" : {
                        "POSITION" : 8,
                        "NORMAL" : 9,
                        "TEXCOORD_0" : 10
                    },
                    "indices" : 11,
                    "material" : 2
                },
                {
                    "attributes" : {
                        "POSITION" : 12,
                        "NORMAL" : 13,
                        "TEXCOORD_0" : 14
                    },
                    "indices" : 15,
                    "material" : 3
                },
                {
                    "attributes" : {
                        "POSITION" : 16,
                        "NORMAL" : 17,
                        "TEXCOORD_0" : 18
                    },
                    "indices" : 19,
                    "material" : 4
                }
            ]
        }
    ],
    "accessors" : [
        {
            "bufferView" : 0,
            "componentType" : 5126,
            "count" : 2679,
            "max" : [
                1.2409766912460327,
                1.3544374704360962,
                0.8573533892631531
            ],
            "min" : [
                -0.5009661912918091,
                -0.3764539957046509,
                -1.2192729711532593
            ],
            "type" : "VEC3"
        },
        {
            "bufferView" : 1,
            "componentType" : 5126,
            "count" : 2679,
            "type" : "VEC3"
        },
        {
            "bufferView" : 2,
            "componentType" : 5126,
            "count" : 2679,
            "type" : "VEC2"
        },
        {
            "bufferView" : 3,
            "componentType" : 5123,
            "count" : 12660,
            "type" : "SCALAR"
        },
        {
            "bufferView" : 4,
            "componentType" : 5126,
            "count" : 4698,
            "max" : [
                1.5369157791137695,
                -0.35143619775772095,
                1.5071089267730713
            ],
            "min" : [
                -1.485406517982483,
                -0.3886653184890747,
                -1.5152117013931274
            ],
            "type" : "VEC3"
        },
        {
            "bufferView" : 5,
            "componentType" : 5126,
            "count" : 4698,
            "type" : "VEC3"
        },
        {
            "bufferView" : 6,
            "componentType" : 5126,
            "count" : 4698,
            "type" : "VEC2"
        },
        {
            "bufferView" : 7,
            "componentType" : 5123,
            "count" : 21072,
            "type" : "SCALAR"
        },
        {
            "bufferView" : 8,
            "componentType" : 5126,
            "count" : 1718,
            "max" : [
                -0.29297277331352234,
                1.0578081607818604,
                -0.0128411166369915
            ],
            "min" : [
                -1.1927316188812256,
                -0.37644216418266296,
                -1.0844353437423706
            ],
            "type" : "VEC3"
        },
        {
            "bufferView" : 9,
            "componentType" : 5126,
            "count" : 1718,
            "type" : "VEC3"
        },
        {
            "bufferView" : 10,
            "componentType" : 5126,
            "count" : 1718,
            "type" : "VEC2"
        },
        {
            "bufferView" : 11,
            "componentType" : 5123,
            "count" : 8076,
            "type" : "SCALAR"
        },
        {
            "bufferView" : 12,
            "componentType" : 5126,
            "count" : 1452,
            "max" : [
                -0.4655071198940277,
                0.7431971430778503,
                0.8276047110557556
            ],
            "min" : [
                -1.1926522254943848,
                -0.3764253854751587,
                -0.01258932240307331
            ],
            "type" : "VEC3"
        },
        {
            "bufferView" : 13,
            "componentType" : 5126,
            "count" : 1452,
            "type" : "VEC3"
        },
        {
            "bufferView" : 14,
            "componentType" : 5126,
            "count" : 1452,
            "type" : "VEC2"
        },
        {
            "bufferView" : 15,
            "componentType" : 5123,
            "count" : 6840,
            "type" : "SCALAR"
        },
        {
            "bufferView" : 16,
            "componentType" : 5126,
            "count" : 1750,
            "max" : [
                1.2491036653518677,
                -0.2895508110523224,
                1.2192957401275635
            ],
            "min" : [
                -1.1975914239883423,
                -0.376619428396225,
                -1.2273989915847778
            ],
            "type" : "VEC3"
        },
        {
            "bufferView" : 17,
            "componentType" : 5126,
            "count" : 1750,
            "type" : "VEC3"
        },
        {
            "bufferView" : 18,
            "componentType" : 5126,
            "count" : 1750,
            "type" : "VEC2"
        },
        {
            "bufferView" : 19,
            "componentType" : 5123,
            "count" : 7296,
            "type" : "SCALAR"
        }
    ],
    "bufferViews" : [
        {
            "buffer" : 0,
            "byteLength" : 32148,
            "byteOffset" : 0
        },
        {
            "buffer" : 0,
            "byteLength" : 32148,
            "byteOffset" : 32148
        },
        {
            "buffer" : 0,
            "byteLength" : 21432,
            "byteOffset" : 64296
        },
        {
            "buffer" : 0,
            "byteLength" : 25320,
            "byteOffset" : 85728
        },
        {
            "buffer" : 0,
            "byteLength" : 56376,
            "byteOffset" : 111048
        },
        {
            "buffer" : 0,
            "byteLength" : 56376,
            "byteOffset" : 167424
        },
        {
            "buffer" : 0,
            "byteLength" : 37584,
            "byteOffset" : 223800
        },
        {
            "buffer" : 0,
            "byteLength" : 42144,
            "byteOffset" : 261384
        },
        {
            "buffer" : 0,
            "byteLength" : 20616,
            "byteOffset" : 303528
        },
        {
            "buffer" : 0,
            "byteLength" : 20616,
            "byteOffset" : 324144
        },
        {
            "buffer" : 0,
            "byteLength" : 13744,
            "byteOffset" : 344760
        },
        {
            "buffer" : 0,
            "byteLength" : 16152,
            "byteOffset" : 358504
        },
        {
            "buffer" : 0,
            "byteLength" : 17424,
            "byteOffset" : 374656
        },
        {
            "buffer" : 0,
            "byteLength" : 17424,
            "byteOffset" : 392080
        },
        {
            "buffer" : 0,
            "byteLength" : 11616,
            "byteOffset" : 409504
        },
        {
            "buffer" : 0,
            "byteLength" : 13680,
            "byteOffset" : 421120
        },
        {
            "buffer" : 0,
            "byteLength" : 21000,
            "byteOffset" : 434800
        },
        {
            "buffer" : 0,
            "byteLength" : 21000,
            "byteOffset" : 455800
        },
        {
            "buffer" : 0,
            "byteLength" : 14000,
            "byteOffset" : 476800
        },
        {
            "buffer" : 0,
            "byteLength" : 14592,
            "byteOffset" : 490800
        }
    ],
    "buffers" : [
        {
            "byteLength" : 505392,
            "uri" : "data:application/octet-stream;base64,"
        }
    ]
}
