{
    "asset" : {
        "generator" : "Khronos glTF Blender I/O v1.6.16",
        "version" : "2.0"
    },
    "scene" : 0,
    "scenes" : [
        {
            "name" : "Scene",
            "nodes" : [
                0
            ]
        }
    ],
    "nodes" : [
        {
            "mesh" : 0,
            "name" : "Sphere.005"
        }
    ],
    "materials" : [
        {
            "doubleSided" : true,
            "name" : "Material.010",
            "pbrMetallicRoughness" : {
                "baseColorFactor" : [
                    0.46134060621261597,
                    0.0013439346803352237,
                    0,
                    1
                ],
                "metallicFactor" : 0,
                "roughnessFactor" : 0.5
            }
        },
        {
            "doubleSided" : true,
            "name" : "Material.011",
            "pbrMetallicRoughness" : {
                "baseColorFactor" : [
                    0.9473066329956055,
                    0.1646949052810669,
                    0.009696654044091702,
                    1
                ],
                "metallicFactor" : 0,
                "roughnessFactor" : 0.5
            }
        },
        {
            "doubleSided" : true,
            "name" : "Material.012",
            "pbrMetallicRoughness" : {
                "baseColorFactor" : [
                    0.35208839178085327,
                    0.35208839178085327,
                    0.35208839178085327,
                    1
                ],
                "roughnessFactor" : 0.5
            }
        },
        {
            "doubleSided" : true,
            "name" : "Material.013",
            "pbrMetallicRoughness" : {
                "metallicFactor" : 0,
                "roughnessFactor" : 0.5
            }
        },
        {
            "doubleSided" : true,
            "name" : "Material.014",
            "pbrMetallicRoughness" : {}
        },
        {
            "doubleSided" : true,
            "name" : "Material.015",
            "pbrMetallicRoughness" : {
                "baseColorFactor" : [
                    0,
                    0.0737403929233551,
                    0.8000000715255737,
                    1
                ],
                "metallicFactor" : 0,
                "roughnessFactor" : 0.5
            }
        }
    ],
    "meshes" : [
        {
            "name" : "Sphere.005",
            "primitives" : [
                {
                    "attributes" : {
                        "POSITION" : 0,
                        "NORMAL" : 1,
                        "TEXCOORD_0" : 2
                    },
                    "indices" : 3,
                    "material" : 0
                },
                {
                    "attributes" : {
                        "POSITION" : 4,
                        "NORMAL" : 5,
                        "TEXCOORD_0" : 6
                    },
                    "indices" : 7,
                    "material" : 1
                },
                {
                    "attributes" : {
                        "POSITION" : 8,
                        "NORMAL" : 9,
                        "TEXCOORD_0" : 10
                    },
                    "indices" : 11,
                    "material" : 2
                },
                {
                    "attributes" : {
                        "POSITION" : 12,
                        "NORMAL" : 13,
                        "TEXCOORD_0" : 14
                    },
                    "indices" : 15,
                    "material" : 3
                },
                {
                    "attributes" : {
                        "POSITION" : 16,
                        "NORMAL" : 17,
                        "TEXCOORD_0" : 18
                    },
                    "indices" : 19,
                    "material" : 4
                },
                {
                    "attributes" : {
                        "POSITION" : 20,
                        "NORMAL" : 21,
                        "TEXCOORD_0" : 22
                    },
                    "indices" : 23,
                    "material" : 5
                }
            ]
        }
    ],
    "accessors" : [
        {
            "bufferView" : 0,
            "componentType" : 5126,
            "count" : 8260,
            "max" : [
                1.179060697555542,
                2.1111021041870117,
                0.9210091829299927
            ],
            "min" : [
                -1.1790605783462524,
                -1.1321580410003662,
                -1.3346673250198364
            ],
            "type" : "VEC3"
        },
        {
            "bufferView" : 1,
            "componentType" : 5126,
            "count" : 8260,
            "type" : "VEC3"
        },
        {
            "bufferView" : 2,
            "componentType" : 5126,
            "count" : 8260,
            "type" : "VEC2"
        },
        {
            "bufferView" : 3,
            "componentType" : 5123,
            "count" : 46080,
            "type" : "SCALAR"
        },
        {
            "bufferView" : 4,
            "componentType" : 5126,
            "count" : 3434,
            "max" : [
                0.9922420978546143,
                2.9545230865478516,
                0.7355806827545166
            ],
            "min" : [
                -0.9922419190406799,
                2.0897159576416016,
                -1.1538840532302856
            ],
            "type" : "VEC3"
        },
        {
            "bufferView" : 5,
            "componentType" : 5126,
            "count" : 3434,
            "type" : "VEC3"
        },
        {
            "bufferView" : 6,
            "componentType" : 5126,
            "count" : 3434,
            "type" : "VEC2"
        },
        {
            "bufferView" : 7,
            "componentType" : 5123,
            "count" : 17664,
            "type" : "SCALAR"
        },
        {
            "bufferView" : 8,
            "componentType" : 5126,
            "count" : 20534,
            "max" : [
                1.050920844078064,
                2.118479013442993,
                1.0927773714065552
            ],
            "min" : [
                -1.0509203672409058,
                0.21901176869869232,
                -1.199060320854187
            ],
            "type" : "VEC3"
        },
        {
            "bufferView" : 9,
            "componentType" : 5126,
            "count" : 20534,
            "type" : "VEC3"
        },
        {
            "bufferView" : 10,
            "componentType" : 5126,
            "count" : 20534,
            "type" : "VEC2"
        },
        {
            "bufferView" : 11,
            "componentType" : 5123,
            "count" : 105984,
            "type" : "SCALAR"
        },
        {
            "bufferView" : 12,
            "componentType" : 5126,
            "count" : 12135,
            "max" : [
                0.46623891592025757,
                -0.7654768824577332,
                0.28155645728111267
            ],
            "min" : [
                -0.4662388563156128,
                -2.1870083808898926,
                -0.6509213447570801
            ],
            "type" : "VEC3"
        },
        {
            "bufferView" : 13,
            "componentType" : 5126,
            "count" : 12135,
            "type" : "VEC3"
        },
        {
            "bufferView" : 14,
            "componentType" : 5126,
            "count" : 12135,
            "type" : "VEC2"
        },
        {
            "bufferView" : 15,
            "componentType" : 5123,
            "count" : 61440,
            "type" : "SCALAR"
        },
        {
            "bufferView" : 16,
            "componentType" : 5126,
            "count" : 780,
            "max" : [
                0.5356696248054504,
                1.342502474784851,
                1.1924165487289429
            ],
            "min" : [
                -0.5483682751655579,
                0.26392418146133423,
                0.8926122784614563
            ],
            "type" : "VEC3"
        },
        {
            "bufferView" : 17,
            "componentType" : 5126,
            "count" : 780,
            "type" : "VEC3"
        },
        {
            "bufferView" : 18,
            "componentType" : 5126,
            "count" : 780,
            "type" : "VEC2"
        },
        {
            "bufferView" : 19,
            "componentType" : 5123,
            "count" : 3120,
            "type" : "SCALAR"
        },
        {
            "bufferView" : 20,
            "componentType" : 5126,
            "count" : 23988,
            "max" : [
                1.1729750633239746,
                -0.3840630054473877,
                0.9752533435821533
            ],
            "min" : [
                -1.1729750633239746,
                -1.5720322132110596,
                -1.3706966638565063
            ],
            "type" : "VEC3"
        },
        {
            "bufferView" : 21,
            "componentType" : 5126,
            "count" : 23988,
            "type" : "VEC3"
        },
        {
            "bufferView" : 22,
            "componentType" : 5126,
            "count" : 23988,
            "type" : "VEC2"
        },
        {
            "bufferView" : 23,
            "componentType" : 5123,
            "count" : 127488,
            "type" : "SCALAR"
        }
    ],
    "bufferViews" : [
        {
            "buffer" : 0,
            "byteLength" : 99120,
            "byteOffset" : 0
        },
        {
            "buffer" : 0,
            "byteLength" : 99120,
            "byteOffset" : 99120
        },
        {
            "buffer" : 0,
            "byteLength" : 66080,
            "byteOffset" : 198240
        },
        {
            "buffer" : 0,
            "byteLength" : 92160,
            "byteOffset" : 264320
        },
        {
            "buffer" : 0,
            "byteLength" : 41208,
            "byteOffset" : 356480
        },
        {
            "buffer" : 0,
            "byteLength" : 41208,
            "byteOffset" : 397688
        },
        {
            "buffer" : 0,
            "byteLength" : 27472,
            "byteOffset" : 438896
        },
        {
            "buffer" : 0,
            "byteLength" : 35328,
            "byteOffset" : 466368
        },
        {
            "buffer" : 0,
            "byteLength" : 246408,
            "byteOffset" : 501696
        },
        {
            "buffer" : 0,
            "byteLength" : 246408,
            "byteOffset" : 748104
        },
        {
            "buffer" : 0,
            "byteLength" : 164272,
            "byteOffset" : 994512
        },
        {
            "buffer" : 0,
            "byteLength" : 211968,
            "byteOffset" : 1158784
        },
        {
            "buffer" : 0,
            "byteLength" : 145620,
            "byteOffset" : 1370752
        },
        {
            "buffer" : 0,
            "byteLength" : 145620,
            "byteOffset" : 1516372
        },
        {
            "buffer" : 0,
            "byteLength" : 97080,
            "byteOffset" : 1661992
        },
        {
            "buffer" : 0,
            "byteLength" : 122880,
            "byteOffset" : 1759072
        },
        {
            "buffer" : 0,
            "byteLength" : 9360,
            "byteOffset" : 1881952
        },
        {
            "buffer" : 0,
            "byteLength" : 9360,
            "byteOffset" : 1891312
        },
        {
            "buffer" : 0,
            "byteLength" : 6240,
            "byteOffset" : 1900672
        },
        {
            "buffer" : 0,
            "byteLength" : 6240,
            "byteOffset" : 1906912
        },
        {
            "buffer" : 0,
            "byteLength" : 287856,
            "byteOffset" : 1913152
        },
        {
            "buffer" : 0,
            "byteLength" : 287856,
            "byteOffset" : 2201008
        },
        {
            "buffer" : 0,
            "byteLength" : 191904,
            "byteOffset" : 2488864
        },
        {
            "buffer" : 0,
            "byteLength" : 254976,
            "byteOffset" : 2680768
        }
    ],
    "buffers" : [
        {
            "byteLength" : 2935744,
            "uri" : "data:application/octet-stream;base64,"
        }
    ]
}
